<svg width="512" height="512" viewBox="0 0 512 512" fill="none" xmlns="http://www.w3.org/2000/svg">
<path d="M438.154 44.3081H73.846C33.127 44.3081 0 77.4351 0 118.154V393.846C0 434.565 33.127 467.692 73.846 467.692H438.154C478.873 467.692 512 434.565 512 393.846V118.154C512 77.4351 478.873 44.3081 438.154 44.3081ZM482.462 300.308H374.154C349.723 300.308 329.846 280.432 329.846 256C329.846 231.568 349.722 211.692 374.154 211.692H482.462V300.308ZM482.462 182.154H374.154C333.435 182.154 300.308 215.281 300.308 256C300.308 296.719 333.435 329.846 374.154 329.846H482.462V393.846C482.462 418.277 462.586 438.154 438.154 438.154H73.846C49.415 438.154 29.538 418.278 29.538 393.846V118.154C29.538 93.7231 49.414 73.8461 73.846 73.8461H438.154C462.585 73.8461 482.462 93.7221 482.462 118.154V182.154Z" fill="white"/>
<path d="M393.846 241.231H374.154C365.997 241.231 359.385 247.844 359.385 256C359.385 264.157 365.998 270.769 374.154 270.769H393.846C402.003 270.769 408.615 264.156 408.615 256C408.615 247.843 402.003 241.231 393.846 241.231Z" fill="white"/>
</svg>
